<?xml version="1.0" standalone="no"?><!DOCTYPE svg PUBLIC "-//W3C//DTD SVG 1.1//EN" "http://www.w3.org/Graphics/SVG/1.1/DTD/svg11.dtd"><svg t="1641872176163" class="icon" viewBox="0 0 1024 1024" version="1.1" xmlns="http://www.w3.org/2000/svg" p-id="2064" width="32" height="32" xmlns:xlink="http://www.w3.org/1999/xlink"><defs><style type="text/css"></style></defs><path d="M512 957.6c-5.5 0-10-4.5-10-10V91c0-5.5 4.5-10 10-10s10 4.5 10 10v856.6c0 5.6-4.5 10-10 10z" fill="#322E63" p-id="2065"></path><path d="M285.3 913.5c-2.3 0-4.5-0.8-6.4-2.3-4.2-3.5-4.8-9.8-1.3-14.1l234.1-280.9 234.5 280.9c3.5 4.2 3 10.5-1.3 14.1-4.2 3.5-10.5 3-14.1-1.3l-219-262.5L293 909.9c-1.9 2.4-4.8 3.6-7.7 3.6z" fill="#322E63" p-id="2066"></path><path d="M885.6 631.8H137.9c-26.4 0-48-21.6-48-48V203c0-26.4 21.6-48 48-48h747.7c26.4 0 48 21.6 48 48v380.8c0 26.4-21.6 48-48 48z" fill="#28B1D5" p-id="2067"></path><path d="M921.6 631.8H101.9c-6.6 0-12-5.4-12-12V575h843.7v44.8c0 6.6-5.4 12-12 12z" fill="#198EBC" p-id="2068"></path><path d="M921.6 641.8H101.9c-12.1 0-22-9.9-22-22V203c0-32 26-58 58-58h747.7c32 0 58 26 58 58v416.8c0 12.2-9.8 22-22 22zM137.9 165c-21 0-38 17-38 38v416.8c0 1.1 0.9 2 2 2h819.7c1.1 0 2-0.9 2-2V203c0-21-17-38-38-38H137.9z" fill="#322E63" p-id="2069"></path><path d="M529 291H187c-5.5 0-10-4.5-10-10s4.5-10 10-10h342c5.5 0 10 4.5 10 10s-4.5 10-10 10zM529 363.1h-63c-5.5 0-10-4.5-10-10s4.5-10 10-10h63c5.5 0 10 4.5 10 10s-4.5 10-10 10zM404 363.1H187c-5.5 0-10-4.5-10-10s4.5-10 10-10h217c5.5 0 10 4.5 10 10s-4.5 10-10 10zM529 435.2H358c-5.5 0-10-4.5-10-10s4.5-10 10-10h171c5.5 0 10 4.5 10 10s-4.5 10-10 10zM299 435.2H187c-5.5 0-10-4.5-10-10s4.5-10 10-10h112c5.5 0 10 4.5 10 10s-4.5 10-10 10zM358 507.2H187c-5.5 0-10-4.5-10-10s4.5-10 10-10h171c5.5 0 10 4.5 10 10s-4.5 10-10 10z" fill="#322E63" p-id="2070"></path><path d="M738.6 393.4m-140 0a140 140 0 1 0 280 0 140 140 0 1 0-280 0Z" fill="#FF525F" p-id="2071"></path><path d="M738.6 253.4v140h-140c0 77.3 62.7 140 140 140s140-62.7 140-140-62.6-140-140-140z" fill="#FFB850" p-id="2072"></path><path d="M738.6 543.4c-82.7 0-150-67.3-150-150s67.3-150 150-150 150 67.3 150 150-67.3 150-150 150z m0-280c-71.7 0-130 58.3-130 130s58.3 130 130 130 130-58.3 130-130-58.3-130-130-130z" fill="#322E63" p-id="2073"></path><path d="M738.6 543.4c-82.7 0-150-67.3-150-150 0-5.5 4.5-10 10-10h130v-130c0-5.5 4.5-10 10-10 82.7 0 150 67.3 150 150s-67.3 150-150 150zM609 403.4c5.1 67 61.3 120 129.6 120 71.7 0 130-58.3 130-130 0-68.3-53-124.5-120-129.6v129.6c0 5.5-4.5 10-10 10H609zM967 641.8H57c-5.5 0-10-4.5-10-10s4.5-10 10-10h910c5.5 0 10 4.5 10 10s-4.5 10-10 10z" fill="#322E63" p-id="2074"></path></svg>